<svg xmlns="http://www.w3.org/2000/svg" width="401" height="241" fill="none"><g fill="#fff" clip-path="url(#a)"><rect width="80.101" height="80.101" x="80.103" rx="6"/><rect width="80.101" height="80.101" x="80.103" rx="12"/></g><g fill="#fff" clip-path="url(#b)"><rect width="80.101" height="80.309" x="240.301" rx="6"/><rect width="80.101" height="80.101" x="240.301" rx="12"/></g><g fill="#fff" clip-path="url(#c)"><rect width="80.101" height="80.31" y="80.309" rx="6"/><rect width="80.101" height="80.101" y="80.309" rx="12"/></g><g fill="#fff" clip-path="url(#d)"><rect width="80.101" height="80.31" x="160.198" y="80.309" rx="6"/><rect width="80.101" height="80.101" x="160.198" y="80.309" rx="12"/></g><g fill="#fff" clip-path="url(#e)"><rect width="80.101" height="80.31" x="320.404" y="80.309" rx="6"/><rect width="80.101" height="80.101" x="320.404" y="80.309" rx="12"/></g><g fill="#fff" clip-path="url(#f)"><rect width="80.101" height="80.309" x="80.103" y="160.618" rx="6"/><rect width="80.101" height="80.101" x="80.103" y="160.618" rx="12"/></g><g fill="#fff" clip-path="url(#g)"><rect width="80.101" height="80.31" x="240.301" y="160.618" rx="6"/><rect width="80.101" height="80.101" x="240.301" y="160.618" rx="12"/></g><path fill="#fff" d="M380.068 40.674c3.874 0 7.308-.83 10.303-2.49 3.027-1.693 5.404-3.988 7.129-6.885 1.725-2.897 2.588-6.185 2.588-9.863v-2.784c0-3.45-.879-6.575-2.637-9.375-1.758-2.832-4.15-5.078-7.178-6.738C387.246.846 383.844 0 380.068 0c-3.808 0-7.226.83-10.254 2.49-3.027 1.66-5.419 3.906-7.177 6.739-1.758 2.799-2.637 5.94-2.637 9.423v2.784c0 3.678.863 6.966 2.588 9.863 1.725 2.897 4.101 5.192 7.129 6.885 3.027 1.66 6.478 2.49 10.351 2.49zm0-4.395c-2.994 0-5.664-.65-8.007-1.953-2.344-1.302-4.183-3.076-5.518-5.322s-2.002-4.785-2.002-7.617V18.7c0-2.637.667-5.045 2.002-7.226 1.335-2.181 3.174-3.907 5.518-5.176 2.343-1.302 5.013-1.953 8.007-1.953 2.963 0 5.616.65 7.959 1.953 2.344 1.27 4.183 2.995 5.518 5.176 1.367 2.18 2.051 4.59 2.051 7.226v2.686c0 2.832-.668 5.37-2.002 7.617-1.335 2.246-3.174 4.02-5.518 5.322-2.344 1.302-5.013 1.953-8.008 1.953zm-3.076-22.754h3.516c1.041 0 1.872.228 2.49.684.619.456.928 1.172.928 2.148 0 1.205-.423 2.002-1.27 2.393a6.47 6.47 0 0 1-2.636.537h-3.028v-5.762zm-.049 16.114v-7.13h3.125l3.907 7.13h5.175a146.523 146.523 0 0 0-2.295-3.858l-2.246-3.906c1.075-.326 1.986-1.01 2.735-2.05.748-1.042 1.123-2.28 1.123-3.712 0-1.725-.602-3.157-1.807-4.297-1.172-1.139-2.718-1.709-4.639-1.709h-9.472V29.64h4.394z"/><defs><clipPath id="a"><rect width="80.101" height="80.101" x="80.103" fill="#fff" rx="6"/></clipPath><clipPath id="b"><rect width="80.101" height="80.309" x="240.301" fill="#fff" rx="6"/></clipPath><clipPath id="c"><rect width="80.101" height="80.31" y="80.309" fill="#fff" rx="6"/></clipPath><clipPath id="d"><rect width="80.101" height="80.31" x="160.198" y="80.309" fill="#fff" rx="6"/></clipPath><clipPath id="e"><rect width="80.101" height="80.31" x="320.404" y="80.309" fill="#fff" rx="6"/></clipPath><clipPath id="f"><rect width="80.101" height="80.309" x="80.103" y="160.618" fill="#fff" rx="6"/></clipPath><clipPath id="g"><rect width="80.101" height="80.31" x="240.301" y="160.618" fill="#fff" rx="6"/></clipPath></defs></svg>